<?xml version="1.0" encoding="UTF-8" standalone="no"?>
<svg xmlns="http://www.w3.org/2000/svg" width="1200" height="1200">
  <path fill="#fcfcfc" d="M0 600V0h1200v1200H0Zm1142.7515 204.55147.2514-337.94854-1.0145-1.01449-1.0144-1.01449-338.10824 338.11239-338.10819 338.11236.68114 1.1021.68113 1.1021 338.19008-.2514L1142.5 1142.5ZM223.09974 1089.3663c44.75144-26.8199 81.47285-57.4961 103.19534-86.2069l5.79507-7.6594 4.95717-10c2.72644-5.5 5.71995-12.925 6.65225-16.5l1.69509-6.5-.10446-12.5-.10446-12.5-1.58337-7c-.87086-3.85-2.48765-10.34457-3.59287-14.43237-2.39129-8.84448-2.52651-13.16715-.53252-17.02312l1.47698-2.85616 66.77279-64.84418C444.45179 795.67988 483.0741 758.175 493.55411 748c34.64023-33.63204 123.97563-116.39055 211.38527-195.82305 28.53342-25.92942 53.37032-41.53927 77.56062-48.7464l9-2.68142 11.5-.47817 11.5-.47817 6.5 1.6955c17.31728 4.51715 28.28524 13.81406 44.1475 37.42131 11.14826 16.59158 21.1495 38.33705 23.26768 50.5904.3803 2.2.92279 4.7875 1.20553 5.75l.51407 1.75h4.12137l11.62193-7.61881c14.9628-9.80894 42.44092-30.4551 57.12192-42.91954 14.18374-12.04225 47.3361-45.17734 59.9377-59.90642 47.0663-55.01249 77.0791-117.13575 86.0216-178.05523l2.0551-14 .6229-16.5.623-16.5-1.1715-15.89273c-2.4376-33.06698-9.1408-61.33212-22.7925-96.10727-3.0228-7.7-6.8866-16.63032-8.5862-19.84515l-3.0902-5.84514-12.0599-5.81559c-41.068-19.80394-80.00625-30.306069-122.06-32.921124l-15-.932754-17.48798.981388-17.48798.981388-14.01254 2.411747c-33.60746 5.784299-59.86329 14.810765-93.9481 32.298325-55.14965 28.29509-108.33119 73.2532-154.7986 130.86219-11.24261 13.93826-25.1164 33.13343-27.91989 38.62872l-1.98448 3.8899.5384 1.40305.5384 1.40305h2.13388c7.39161 0 32.78397 11.43565 48.11646 21.66964 23.79831 15.88467 36.67031 30.44054 41.35893 46.76936l1.70531 5.93901-.47927 12.56099-.47927 12.561-3.20251 9.5c-6.21583 18.43879-18.67172 39.05089-35.47991 58.71245-9.97781 11.67164-62.21742 65.5128-137.61085 141.82968-43.7914 44.32778-78.21926 78.13413-140.49412 137.95787-36.11428 34.69283-49.36976 47.48143-66.96796 64.60925-8.82085 8.58509-19.12079 18.37259-22.88875 21.75L279.79833 837l-3.64916-.0237-3.64917-.0237-6-2.58345c-3.3-1.4209-10.5-4.19099-16-6.15577l-10-3.57232-15-.42653-15-.42653-5.74744 1.07161c-12.62316 2.35359-26.07359 9.13691-42.7035 21.53623l-9.45094 7.04665-13.12352 13.02879c-14.99916 14.89082-26.24524 27.82453-39.15329 45.02872C88.440625 927.33489 73 950.53487 73 952.55104v1.60386l10.803098 11.17255c5.941703 6.1449 28.532682 29.62255 50.202182 52.17255 21.66949 22.55 47.52419 49.2125 57.45489 59.25l18.05581 18.25h4.1835zm-31.23201-23.5562c-10.65225-11.1044-39.50523-41.0719-64.11773-66.59434C103.1375 973.6933 83 952.2678 83 951.60353c0-.66427 3.448138-6.35931 7.662528-12.65565 34.605222-51.7005 74.453522-90.59591 105.682922-103.15571l8.15455-3.27959 16-.006 16-.006 5 1.43784c2.75.79082 10.4 3.62189 17 6.29127 6.6 2.66939 13.84701 5.11205 16.10447 5.42814l4.10447.5747 3.39553-1.61361c4.92292-2.33946 23.23426-19.65276 133.9015-126.60331 16.22828-15.68327 52.67828-50.77525 81-77.98218 61.25872-58.84807 72.14486-69.38746 107.49403-104.07064 54.57062-53.54249 102.40034-93.61612 162.5-136.14891 18.39202-13.01611 46.04718-31.17657 49.91802-32.77992l3.1721-1.31393 2.48416 1.13186 2.48416 1.13186.85717 2.25812.85718 2.25813-1.36821 3.32859C820.87736 386.84248 766.83364 458.14805 733.56669 497 697.54701 539.06681 700.19752 536.43225 465 763.95127c-51.975 50.27818-103.38354 100.20122-114.2412 110.94011l-19.7412 19.52525-1.11368 3.37448-1.11368 3.37449.70353 5.63085c.38694 3.09697 2.00701 10.14721 3.60015 15.6672S336.47318 936.325 337.06308 941l1.07254 8.5-.68633 7c-2.04616 20.86929-12.53374 38.8502-37.23494 63.8392-17.38133 17.5838-39.93233 35.7361-63.34742 50.9911-10.89451 7.0978-23.84091 14.6697-25.08224 14.6697-.30207 0-9.2647-9.0854-19.91696-20.1899zm47.27417-56.6568c6.79696-5.9657 14.95818-13.59552 18.13605-16.9551l5.77795-6.10834 3.49079-7.35059 3.49078-7.35059 1.16079-8.67565 1.16079-8.67564-1.0774-8.16051-1.0774-8.16051-4.54021-9.10818-4.54021-9.10819-5.81192-5.69235c-7.23106-7.08231-15.76243-12.26744-24.62414-14.96589l-6.81224-2.07437-12.68776.39971-12.68777.39971-6.5 3.06421c-8.86959 4.18129-15.72846 10.03663-30.46352 26.00637L149 940.22433v3.56307l37.75 38.14473c20.7625 20.97957 38.26386 38.12747 38.8919 38.10627.62805-.021 6.70305-4.9194 13.5-10.8851zm-46.50837-33.03471-32.82586-32.88141.34617-1.62449c.43978-2.06386 14.37739-17.33968 22.63851-24.81215l6.30099-5.69945 5.29858-2.50664 5.29859-2.50663 6.76861-1.08129 6.76862-1.08129 7.31134 1.01691 7.31133 1.01692 5.3248 2.37791c31.07743 13.87839 40.74512 52.59807 19.33036 77.41928C248.78602 990.06748 227.27782 1009 226.09964 1009c-.35214 0-15.41189-14.79663-33.46611-32.88141zm438.9891-396.61783 5.01531-2.49923 9.93103-8.84121c30.24032-26.92177 87.87499-91.29542 118.66757-132.54288l8.87072-11.88256-.30363-2.59904-.30363-2.59903-2.69933-.94363-2.69933-.94362-5.80067 3.82498C731.11031 441.04156 662.86928 497.43659 630.37398 529.5l-17.22898 17-3.11273 5c-1.71199 2.75-3.79398 7.33645-4.62663 10.19212l-1.5139 5.19211 1.03481 3.84299 1.03481 3.84299 3.26932 3.09213c4.06503 3.84471 4.94287 4.16091 11.82298 4.25871l5.55365.0789 5.01532-2.49924zm-6.69955-17.42384L622 559.15385l.0222-3.32693.0222-3.32692 1.72777-2.13296c2.10805-2.60235 5.39989-4.36704 8.14631-4.36704h2.04997l3.0505 2.75 3.05051 2.75.58858 3.70361.58859 3.70361-3.04639 3.04639L635.15385 565h-7.3077Zm33-32L655 527.15385v-6.0004l2.49705-2.96758 2.49705-2.96757 2.65669-.66679 2.65669-.66679 2.89342 1.1985 2.89342 1.19849 1.45284 2.80948c.79906 1.54522 1.45284 3.99145 1.45284 5.43607v2.62659l-2.92308 2.92307L668.15385 533h-7.3077ZM419.44552 379.07234 737.39104 60.991043l-.99699-.996988-.99698-.996988-337.94854.251466L59.5 59.5 59.244067 397c-.140764 185.625-.02369 338.11123.260169 338.85829l.516104 1.35829 20.73983-20.03148c11.406906-11.01731 163.81531-163.16805 338.68535-338.11276Z"/>
  <path fill="#e4141c" d="m465.43871 1141.9008-.68114-1.1021 338.10819-338.11236L1140.974 464.57395l1.0144 1.01449 1.0145 1.01449-.2514 337.94854L1142.5 1142.5l-338.19008.2515-338.19008.2514zM59.504236 735.85829C59.22038 735.11123 59.103303 582.625 59.244067 397L59.5 59.5l337.94853-.251467 337.94854-.251466.99698.996988.99699.996988L419.44552 379.07234C244.57548 554.01705 92.167076 706.16779 80.76017 717.1851l-20.73983 20.03148z"/>
  <path fill="#040404" d="M203.25953 1087.75c-8.33991-8.0327-111.524615-114.50103-123.029326-126.94451l-7.269795-7.863 1.170076-2.22124c2.478241-4.70464 21.094652-31.7761 28.376575-41.26441 34.46834-44.91212 68.26122-73.84836 96.49294-82.6252l7.5-2.33164 15.5.0938 15.5.0938 6.16343 1.66111c3.38989.91361 11.03186 3.74072 16.98214 6.28246 5.95029 2.54174 12.40174 4.82904 14.33657 5.08289l3.51786.46155 4-2.96416c3.65404-2.70778 28.97076-26.96815 138-132.24191C478.6595 646.8134 635.55546 487.88333 655.4239 465c3.10399-3.575 9.27094-11.675 13.70432-18l8.0607-11.5 6.27885-12.68648 6.27885-12.68648 2.29482-8.31352 2.29482-8.31352.0377-13 .0377-13-2.26166-5.70726c-1.24391-3.13899-4.4093-8.98899-7.0342-13L680.3432 341.5l-5.96497-5.50593c-13.01393-12.01242-27.81045-21.89406-45.84405-30.6163l-10.96581-5.30379-8.28419-2.18846L601 295.69707v-1.7938c0-2.20763 11.14258-18.76394 22.24468-33.05246 26.56274-34.18656 60.66593-69.29598 90.07272-92.73038 113.99871-90.846036 230.91715-107.174883 352.0768-49.17109l10.3976 4.97775 2.0119 3.28646c3.0442 4.97274 11.4865 25.62708 16.6711 40.78645 5.7562 16.83073 9.8998 33.1185 13.2123 51.93543L1110.251 234.5l.4957 25.32576.4957 25.32577-1.1888 11.17423c-7.2074 67.74976-39.8052 136.11028-94.0229 197.17424-13.3469 15.0323-42.92131 43.82051-57.0307 55.51463-28.03325 23.23445-65.16306 49.23869-67.89447 47.55059-.45966-.28408-1.38465-3.30657-2.05554-6.71665-2.72612-13.8566-11.93051-33.93461-23.76901-51.84857l-6.93897-10.5-7.68568-8.15517c-8.85163-9.39234-14.86306-13.562-24.31319-16.86413l-6.70914-2.34436-7.21297-.67591-7.21298-.67591-8.85402 1.16817-8.85403 1.16818-8.87482 2.96232c-16.84435 5.62247-40.19621 19.0879-57.12518 32.94021-8.26121 6.75982-17.92438 15.51308-74.5 67.48489-23.375 21.47288-56.225 51.62901-73 67.01363C533.21348 708.92789 421.95929 815.81688 352.84461 884l-13.68445 13.5-1.20004 4.12206-1.20003 4.12206 3.81978 14.37794L344.39966 934.5l.0502 15 .0502 15-2.34303 7.5c-10.9451 35.035-55.72563 78.8118-120.05723 117.3663-5.17014 3.0986-9.83061 5.6337-10.35658 5.6337-.52598 0-4.34361-3.2625-8.48363-7.25zm23.26091-9.2429c50.20777-30.8026 90.70441-68.8602 104.98769-98.66436l3.42144-7.13935 1.66672-7.4916 1.66672-7.4916-.54483-11.61009-.54484-11.6101-3.58667-12.44757L330 909.60486V896.7306l9.25-9.49112c5.0875-5.22012 37.15-36.53382 71.25-69.586s76.625-74.28711 94.5-91.63317c17.875-17.34607 59.725-57.8338 93-89.97275 89.63983-86.5794 97.28072-94.31259 129.05925-130.61808 29.09487-33.23955 70.09476-86.05858 92.76858-119.5112L827 375.33655v-2.44577c0-1.34517-.70052-3.4459-1.5567-4.66827L823.88659 366h-6.85136l-6.63813 4.06298c-25.73834 15.75361-71.00742 48.1568-105.3971 75.44228-36.05085 28.60348-54.68994 45.42782-113.5 102.44933-24.2 23.46402-68.975 66.69485-99.5 96.06851-30.525 29.37366-79.8 76.8416-109.5 105.48431-83.10365 80.14526-93.13849 89.67261-97.73026 92.78781L280.5 845.19195l-5.5-.52497-5.5-.52496-11.30743-4.59868c-6.21909-2.52927-13.86909-5.27406-17-6.09954L235.5 831.94294l-14.5-.0827-14.5-.0827-6.41174 2.17633c-32.66305 11.0868-72.58102 49.09495-109.93591 104.67621C85.668558 945.30163 82 951.12091 82 951.56181c0 .44091 3.495215 4.43237 7.767145 8.86992C119.51602 991.33394 197.79465 1072.8136 203.43709 1078.75l6.89103 7.25h3.97908zm-39.86266-97.45377C165.946 960.18266 149 942.70201 149 942.20745c0-1.38886 18.72855-21.84936 27.39684-29.9304l7.74784-7.22295 6.17766-3.03965L196.5 898.9748l8.75-1.16942 8.75-1.16943 8.39119 1.12273 8.39118 1.12273 6.35882 2.91093c15.84933 7.2555 27.28481 20.4261 32.24637 37.13916L271 944.363v20.274l-1.59538 5.4315c-.87746 2.98732-3.01496 8.11426-4.75 11.39318L261.5 987.42336l-7 6.95411C244.78967 1004.0241 227.23568 1019 225.63865 1019c-.72769 0-18.26908-17.076-38.98087-37.94667zm52.16675 18.42038c15.46189-13.28814 20.52295-19.89118 23.74057-30.97371l1.74199-6-.068-8.5-.068-8.5-2.07078-6.57218-2.07078-6.57217-4.86553-6.92827-4.86554-6.92826-6.1151-4.28951c-3.36331-2.35923-8.71796-5.45682-11.89922-6.88355l-5.7841-2.59404-9.64686-.49474-9.64685-.49474-6.94838 2.1105-6.94838 2.11051-6.51415 4.76822-6.51416 4.76823-10.63449 11.5c-5.84897 6.325-10.63724 12.02287-10.64061 12.66193-.003.63905 14.66781 16.05155 32.60262 34.25L224.21749 1009h3.52239zm374.24946-419.65236L608.64798 577.5l-1.89159-3.5-1.8916-3.5.49305-5.22769.49305-5.22769 2.82455-5.27164 2.82456-5.27164 12.5-12.87013c30.36106-31.26007 101.12239-90.51142 136.69513-114.4604L766.89026 418h5.03937l.91702 1.75.91702 1.75-.79907 2.11338C769.10635 433.81766 706.8782 506.90127 671 543.3653c-30.67863 31.17956-38.47435 37.35165-48.36252 38.28992l-5.13748.48748Zm23.05445-15.38777 3.02912-1.56642 1.43464-3.43358L642.02684 556l-1.40779-3.36931c-.77428-1.85312-2.45545-4.10312-3.73592-5L634.55499 546h-7.10998l-2.1932 1.53618-2.19321 1.53618-1.16513 3.88886-1.16513 3.88886 1.94057 3.32272c3.25162 5.56754 8.01597 7.07576 13.45953 4.26078zm34.8578-32.92113c1.00706-.91137 2.36576-2.94804 3.01935-4.52594l1.18833-2.86889-1.18025-3.5762-1.18025-3.5762-2.86705-1.48261c-1.57688-.81544-4.17871-1.48261-5.78185-1.48261h-2.9148l-2.4995 1.96611c-1.37473 1.08135-3.06501 3.33135-3.75618 5L653.75736 524l1.25668 3.03389c.69117 1.66865 2.43327 3.96149 3.87132 5.09522l2.61464 2.06132 3.82762-.51047 3.82761-.51047z"/>
</svg>